<?xml version="1.0" encoding="UTF-8"?>
<svg version="1.1" viewBox="0 0 2048 729" width="190" height="50" xmlns="http://www.w3.org/2000/svg">
    <path transform="translate(8)" d="m0 0h185l1 3h2l7 8 13 13 4 3 154 1 1 3 7-1v-6l-1-2h-5l-2 3h-154l-6-5-7-8-11-11v-1h226l11 11 6 1 61 1 3 3h5l1-7-4-2-4 3h-67l-8-8v-2h92l25 6 17 6 19 10 14 10 12 11 11 11 12 17 11 21 7 21 3 15 1 12v207l-2 18-5 19-9 21-8 14-9 12-9 10-11 11-17 12-18 10-19 7-17 4-20 2h-53l-2-1-2-5h-5l-2 3-7 1h-265l-43-43-2-1 2 4 29 29 2 1v2l4 2 6 7-10 1h-41l-38-38-20-1h-50l-1-1v-24l1-2h187l10-1 11-8 11-9 16-13 11-8 3-1h264l8 1 3 2h4l1-2v-6l-6-2-2 4-273 1-9 6-16 13-14 11-13 10h-196l-1-1v-27l1-2h108l8-2 7-8h2l2-4h47l-3 5-10 10-1 2 4-2 15-15 275-1 16-2 12-4 13-7 11-9 9-11 8-15 4-14 1-8 1-86 1-1h40l12 1 1 3 6-1 1-6-2-3h-4l-2 3h-53l-1-30-3-16-5-13-7-12-9-10-11-8-16-8-11-3-11-1h-342l-1 23-7-6-16-17-7-7-7-8-21-21-7-8-47-1-1-1v-30l1-3h105l7 6v2l3 1 7 8 36 36 8 7 10 10 4 1 185 1 3 3 5-1 1-5-1-3-7 1-1 2-53 1h-126l-10-2-70-70-106-1-1-1zm194 73v2l249 1 28 28 3 2 73 1 4 3 5-1 2-3-1-4-2-3-5 1-2 2-45 1h-26l-5-3-9-9-1-2h-2l-2-4-11-11-2-1zm208 324-1 4h-130l-8 7-29 29-1 3 4-1 33-33 2-1h129l1 3h6l2-3-1-7zm159 46-2 4h-264v3l263 1 5 4 5-3v-6l-3-3z" fill="#0085BC"/>
    <path transform="translate(1560)" d="m0 0h225l-3 5-12 12-5 1h-147l-5-4-5 1v7l1 1h5l3-3 152-1 8-7 10-10 1-2h106l22 5 15 5 21 11 2 3-79 1-10 9-5 6-8 7-42 42-4 5-4 1h-185l-4-3h-5l-1 7v2h8l1-3 187-1 8-6 4-5 8-7 44-44 6-7 3-2h83l11 8 12 11 7 7 4 6-6 1h-47l-6 2-8 8-7 8-11 12-19 19-7 9-11-2-15-2h-321l-18 2-13 5-13 9-8 12h-8l-2 4v5l7 2 1 14 6 12 8 6 11 5 13 3 9 1 326 1 10 10v2l3 1v2l3 1v2l4 2 30 30v2l3 1v2l3 1 4 5 5 4v2l3 1v2l4 2 11 11 86 1 3 5 4 16-4 1h-120l-24-2-7-1-26-26-7-8-7-6-4-5-2-1v-2l-4-2-23-23v-2l-3-1-7-8-6-5-43-1h-338l-7-2-2-2-4 1-2 5 4 4 5-2 1-1h385l8 7 78 78-1 2-174-1-4-1-1 1h-182l-20-3-22-6-21-9-14-8-12-9-13-12-10-12-9-14-8-17-5-15-3-15-1-8v-33l3-18 6-20 10-21 10-15 9-11 15-15 15-11 16-9 16-7 10-2 4 3 7-4h61l5-2zm-9 64-14 1-10 9-12 12-6 7-2 1h-73l-3-3-5 1-2 3 1 5 2 2 6-1 1-3h64l11-1 29-29 250-1v-2zm-89 155-2 2v6l2 3 6-1 1-3h306l1-3-308-1-1-3z" fill="#0084BB"/>
    <path transform="translate(590,276)" d="m0 0h28l8 2 6 5 5 9h4l4-8h3v81l-5 19-9 21-8 14-9 12-9 10-11 11-17 12-18 10-19 7-17 4-20 2h-53l-2-1-2-5h-5l-2 3-7 1h-265l-43-43-2-1 2 4 29 29 2 1v2l4 2 6 7-10 1h-41l-38-38-20-1h-50l-1-1v-24l1-2h187l10-1 11-8 11-9 16-13 11-8 3-1h264l8 1 3 2h4l1-2v-6l-6-2-2 4-273 1-9 6-16 13-14 11-13 10h-196l-1-1v-27l1-2h108l8-2 7-8h2l2-4h47l-3 5-10 10-1 2 4-2 15-15 275-1 16-2 12-4 13-7 11-9 9-11 8-15 4-14 2-15 1-16 1 2 3-1 1 3 2 1 1 3 9-8 2-2 4-1h24zm-180 121-1 4h-130l-8 7-29 29-1 3 4-1 33-33 2-1h129l1 3h6l2-3-1-7zm159 46-2 4h-264v3l263 1 5 4 5-3v-6l-3-3z" fill="#015389"/>
    <path transform="translate(931)" d="m0 0h145l16 26 14 23 26 42 16 26 13 21 7 12 1 8v190l14 18 14 17 10 13 1 3v28l-4-4-11-17-6-9-43-1-4-4-1-3v-239l3-3-1-5-5-1-4 3 4 8v92l1 146 3 3v3h-18l-1-35v-91l1-33 3-1-1-6-3-2-4 1-2 4 1 3 3 2v39l-4-5-30-45-12-19-10-15-34-52-6-10v-48l4-2-2-6-5-1-3 2 1 5 2 2 1 43-5-5-5-7-5-2v-98l4-4-1-4-1-1h-8l1 5 2 2 1 8v92l-6 1h-2l-2 4-11 18-12 18-11 17-13 20-5 7h-1l1-38 2-62 3-4h2l-2-5-1-1h-6l-2 2 1 4 2 2v42l-2 56v8l-5 9-17 26-8 12-10 16-2 3h-2v-37l3-3v-5l-3-2-5 1-2 5 4 3v45l-6 9h6v112l-1 1h-26l-1-1v-242l7-8 23-23 1-63 8-14 15-24z" fill="#0085BC"/>
    <path transform="translate(1371,316)" d="m0 0h111l2 7 5 16 7 11 7 7 11 7 12 6v1h-65l-2-4-7 1-1 8 4 1 5-3 1-1h81l14 1 181 1 8 7 16 13 14 11 9 6 228 1-2 5-10 14-6 7-3 1h-76l-6 4-40 40-2 3h-348l-18-2-19-5-16-7-14-8-14-10-11-9-1-4h261l-1-2-263-1-9-7-11-14-11-18-9-19-7-21-4-19-1-9zm204 73-3 3v6l2 2h5l4-4 128 1 35 35h2l-2-4-34-34-2-1-129-1-3-3zm290 43-5 4-7 8-30 30-2 1h-273l-3-3-5 1-1 1v7l2 2h5l3-3 272-1 12-11 32-32 2-4z" fill="#015389"/>
    <path transform="translate(891,65)" d="m0 0h1v56l-29 29-1 133v113l-43 1-15 24-24 38-2 1v-24l8-5 3-5v-8l-2-5 4-5 8-7 5-6 5-4 7-8 1-6v-146l3-4v-5l-7-1-2 2 1 5 3 4v150l-25 25-3 4-5-1-9-1-7 4-3 8 1 6 4 6 7 3v30l-7 12-6 9h-37l-1-1v-149l12-20 32-52 6-9h1v105h3v-112l12-20 8-13 15-24 12-20 12-19 17-28 14-23 12-19 8-13z" fill="#0085BC"/>
    <path transform="translate(1171,156)" d="m0 0 3 3 14 23 1 1v5l-2 3 4 6v117l1 11 7 8 5 4 4 5 8 7 12 12-2-4-32-32-1-2v-127h3l7 10 17 28 15 24 2 4v38h3v-32l3 3 17 28 13 21 1 2v102l-1 11-36 36-3-1-12-19-11-17-1-37-11-14-13-16-11-14-4-6-1-9v-150z" fill="#015288"/>
    <path transform="translate(1876,574)" d="m0 0h128l13 4 9 6 5 4 8 11 6 13 3 11v5l-15 1h-11l-2-6-4-10-7-7-11-5-9-1h-95l-14 1-10 5-6 7-2 7 1 9 5 6 8 3 8 1 122 1 16 3 10 5 7 6 5 9 3 9 1 11-4 16-6 11-9 9-12 7-10 3h-129l-13-5-10-7-9-10-7-14-3-13v-5l4-1h21l3 9 4 8 8 7 11 4h113l10-4 5-5 4-6 2-7-1-7-2-4-7-3-5-1-125-1-16-3-14-7-6-5-6-10-2-5-1-6v-12l3-12 5-9 9-10 9-6 10-4z" fill="#00376E"/>
    <path transform="translate(40,574)" d="m0 0h129l13 4 10 7 8 8 7 12 4 13 1 9-2 2h-23l-3-8-5-10-7-6-9-4-7-1h-98l-13 1-9 4-5 4-4 9v10l4 6 6 3 11 2 123 1 16 3 11 6 7 7 5 10 2 13-2 16-7 14-8 9-14 8-10 3h-128l-13-5-9-6-5-5-6-7-7-14-3-13v-4h27l2 9 5 8 8 7 10 3h112l9-3 8-7 4-9v-10l-4-5-11-3-125-1-15-3-10-4-9-7-6-8-4-11-1-4v-9l3-12 5-10 7-9 8-6 10-5z" fill="#00376E"/>
    <path transform="translate(1625,574)" d="m0 0h194l1 14v10l-1 1h-168v40l163-1 1 1v25l-154 1-10-1v39h168v26h-194l-1-35v-56z" fill="#01366C"/>
    <path transform="translate(1222,574)" d="m0 0h123l13 4 10 6 8 8 6 10 3 8 1 8v63l-2 15-6 12-9 10-9 6-14 5h-125l-13-5-9-6-8-8-8-16-1-5v-75l3-10 6-11 10-10 10-6zm22 25-13 1-12 6-7 8-4 11v53l3 9 6 8 10 6 7 2h101l12-5 6-5 6-11 1-4v-53l-4-10-6-8-10-6-10-2z" fill="#00366D"/>
    <path transform="translate(266,574)" d="m0 0h123l13 4 10 6 8 8 6 10 3 9 1 5v69l-2 11-6 12-9 10-11 7-12 4h-125l-15-6-8-6-7-7-6-11-3-9v-77l5-14 6-8 9-9 12-6zm21 25-12 1-12 6-7 8-4 11-1 7v39l2 11 4 8 8 8 8 4 5 1h100l11-4 10-9 4-9 1-4v-51l-4-11-6-8-8-5-5-2-8-1z" fill="#00356C"/>
    <path transform="translate(9,91)" d="m0 0h11l5 3 7 8 54 54 8 7 7 7 19 1 1 1v43l-67 67-2 1h-43l-1-1v-67l4 1 5 4 26 1 3 3 5-1 2-4-2-5-5 1-3 3h-26l-8-7-1-3v-86l2-1 8 7 50 50 1 2v6l7-1 1-6-8-3-56-56-4-2-1-2v-23z" fill="#0085BC"/>
    <path transform="translate(923,574)" d="m0 0h128l13 4 11 7 9 10 7 14 3 12 1 11-1 1h-25l-3-12-6-11-8-6-7-3-7-1h-93l-13 1-11 6-6 7-4 9-1 4v49l3 10 6 8 9 6 8 2h107l12-6 7-7 5-11 1-8 1-1h25l1 3-2 15-5 14-7 10-4 5-10 7-11 5-4 1h-129l-13-5-10-6-9-10-6-13-2-10v-63l2-15 6-12 9-10 9-6 10-4z" fill="#00366D"/>
    <path transform="translate(774,256)" d="m0 0h1v105h4v-68l6-5 18-4 7-1 2 1 2 16v83l-24 24-3 4-5-1-9-1-7 4-3 8 1 6 4 6 7 3v30l-7 12-6 9h-37l-1-1v-149l12-20 32-52z" fill="#015288"/>
    <path transform="translate(1405,574)" d="m0 0h32l14 12 10 9 8 7 14 12 10 9 11 9 12 11 11 9 12 11 11 9 13 12 11 9 5 4v-123h24l1 1v154h-33l-5-5-14-13-11-9-13-12-11-9-13-12-11-9-13-12-11-9-12-11-11-9-13-12-2-1-1 123h-26v-154z" fill="#00366D"/>
    <path transform="translate(1006,283)" d="m0 0h13l1 1v105h3v-105l1-1h95l1 112-1 1h-19l-1-1v-83l2-3h2l-2-6-5-1-4 3 2 4 2 3v83l-1 1h-88l-1-1z" fill="#016299"/>
    <path transform="translate(661,574)" d="m0 0h25l1 1 1 104 4 9 7 8 10 5 4 1h100l11-4 7-5 5-8 2-7 1-103 1-1h24l1 3-1 115-5 13-7 9-8 7-12 6-7 2h-125l-15-6-8-6-7-7-8-16-1-5-1-18v-96z" fill="#00366D"/>
    <path transform="translate(136,375)" d="m0 0h47l-3 5-10 10-1 2 4-2 15-15h172v1l170 1v1l-273 1-9 6-16 13-14 11-13 10h-196l-1-1v-27l1-2h108l8-2 7-8h2z" fill="#01548A"/>
    <path transform="translate(449,574)" d="m0 0h25v129h170l1 26h-196l-1-2v-152z" fill="#00356C"/>
    <path transform="translate(1742,375)" d="m0 0h68l5 5 7 6-3-5-4-4v-2h46l6 6 159 1-1 6-5 12-5 10-1 1h-227l-5-2-16-13-10-8-14-11z" fill="#01558B"/>
    <path transform="translate(1858,193)" d="m0 0 40 1 26 4 21 6 10 5v3l-6-1-6-4h-4l-1 2v6l1 1h5l4-3h16l14 8 11 9 9 8 1 3-2 3v3l3 2h7l6 8 8 14 1 4h-84l-8-7-71-71z" fill="#0085BC"/>
    <path transform="translate(119,302)" d="m0 0h2v58l-3 4-4 1h-105l-1-1v-54l1-1 104-1 5-4z" fill="#01639A"/>
    <path transform="translate(1907,301)" d="m0 0 124 1 3 21v24l-1 9-1 1h-120l2-4 6-10 3-10v-9l-3-10-4-6-9-6z" fill="#016299"/>
    <path transform="translate(851,274)" d="m0 0h6l4 3 1 92v27l-43 1-15 24-24 38-2 1v-24l8-5 3-5v-8l-2-5 4-5 8-7 5-6 5-4 7-8 1-6 1-95 4-3 14-1z" fill="#015389"/>
    <path transform="translate(590,276)" d="m0 0h28l8 2 6 5 5 9h4l4-8h3v81l-2 4-1-8v-6l1-5-3-7-5-4-5-13-3-2v-2l-6-1-6-2-11 4-4 1-4 2h-5l-5-1-7 3-13 1-13-1-5 2-2 3h-2v2l-5 3-4 5h-2l-2 4-6 8-7 8-6 4-9 1-2-1v2l-7 1 1-2h2l2-6 11-8 9-10 8-14 4-10 3-16 2-23 1 2 3-1 1 3 2 1 1 3 9-8 2-2 4-1h24z" fill="#016198"/>
    <path transform="translate(1006,283)" d="m0 0h13l1 1v105h4v-52l2-5 2-1 15-1v2l11 1 14 4 10 4h2l1-2 9 3 5 4v50h-88l-1-1z" fill="#015288"/>
    <path transform="translate(1194,195)" d="m0 0 5 5 15 24 14 23 8 13 1 2v38h3v-32l3 3 17 28 13 21 1 2v88h-1l-1-59-11-9-5-5-12-9-7-4-6-3-9-4h-10l-10-2-7 1-1 7h-1v-127z" fill="#016299"/>
    <path transform="translate(1277,328)" d="m0 0 3 3 12 20 15 24 7 11 1 4v56l-3 5-36 36h-30l-4-5-4-6 1-5 37-37z" fill="#015389"/>
    <path transform="translate(939,283)" d="m0 0h42l1 4v108l-1 1h-45l-1-5 3-103z" fill="#015389"/>
    <path transform="translate(119,219)" d="m0 0h2v79l-8 8-7 1h-97l-1-1v-18l1-3h38l8-2 8-8h2l1-3 8-7 9-9 7-8z" fill="#0085BC"/>
    <path transform="translate(1152,278)" d="m0 0 12 2 3 1 1 57 1 10 14 18 14 17 10 13 1 3v28l-4-4-11-17-6-9-43-1-4-4v-109l4-4z" fill="#01538A"/>
    <path transform="translate(1980,113)" d="m0 0h43l3 5 6 25 1 12-7 3-5 5-6 7-2 1h-90l1-4 8-7 46-46z" fill="#0085BC"/>
    <path transform="translate(896,283)" d="m0 0h39l1 5-2 78-1 29-1 1h-36l-1-1v-111z" fill="#015389"/>
    <path transform="translate(9,70)" d="m0 0h45l13 13 7 8 15 15 7 8 21 21 4 5v28l-1 1h-16l-8-7-7-6-4-5-5-4-4-5-52-52-15-1-1-1v-15z" fill="#0085BC"/>
    <path transform="translate(1126,574)" d="m0 0h24l1 1v154h-26v-154z" fill="#00376E"/>
    <path transform="translate(1936,62)" d="m0 0h60l7 8 5 8v3l-40 1-56 56-5-2-6-7-11-7-7-4 6-7 17-17 7-8 9-9 7-8 4-5z" fill="#0085BC"/>
    <path transform="translate(720,343)" d="m0 0h2v143l-1 1h-28v-100l13-21z" fill="#01548A"/>
    <path transform="translate(1969,83)" d="m0 0h41l5 8 7 16v3l-43 1-55 55-3-1-3-12-6-13 5-5z" fill="#0085BC"/>
    <path transform="translate(9,316)" d="m0 0 2 1 3 10 1 4v3l2 1 2 4h2l2-4 2-1h12l7-1 9-2h4v3h2v2h12l1-1 13-1 5-2 11 9 6 7 1 4h4l1-2 1 1 3-7h3v17l-2 3-4 1h-105z" fill="#015389"/>
    <path transform="translate(865,278)" d="m0 0 5 1 4 7 5 4v3l3-2h4l2-5 1-2h2v112h-26l-1-1v-59z" fill="#015389"/>
    <path transform="translate(1906,360)" d="m0 0h126l-1 8-3 11-1 1h-158l-5-5 1-1 15-2 14-5 9-5z" fill="#01558B"/>
    <path transform="translate(1992,317)" d="m0 0 11 1 7 6 9 13 4 15-1 4h-96v-6l3-1 2-4 4-6 11-12 7-3h10l8 1 5-4z" fill="#025288"/>
    <path transform="translate(1371,316)" d="m0 0h111l2 7 5 16 5 9-1 6-1 2-9-1-10-9-7-8-10-4-14-1h-21l-15 1h-7l-11 3-4 7-2 14-3 5h-2l-5-22-1-9z" fill="#016198"/>
    <path transform="translate(1194,195)" d="m0 0 5 5 15 24 14 23 8 13 1 2v38l-2-3-3-3v-2l-4-2-11-6-16-8-6 1-1 46h-1v-127z" fill="#0085BC"/>
    <path transform="translate(774,256)" d="m0 0h1v105l3 1h-4v-27h-7l-6 2-10 2-4 1-2 4-14 8-4 4-1 3-1 127h-1v-149l12-20 32-52z" fill="#01649B"/>
    <path transform="translate(1915,442)" d="m0 0h75l-5 6-14 11-11 7-2 1-34 1-10 9-7 8-3 1-12 1h-22l2-4 3-3h2v-2l34-34z" fill="#01548B"/>
    <path transform="translate(688,395)" d="m0 0h2v91l-1 1h-38l-1-1v-29l13-21 14-23z" fill="#01548A"/>
    <path transform="translate(9,450)" d="m0 0h67l23 23 3 2v2l4 2 6 6v2h-35l-10-11-58-1-1-1v-23z" fill="#01548A"/>
    <path transform="translate(120,365)" d="m0 0 2 2-1 8h11l-2 4-6 7-2 1h-114v-19l1-1 109-1z" fill="#01558B"/>
    <path transform="translate(1317,394)" d="m0 0 5 5 15 25 15 24-2 4-35 35h-34l2-4 33-33z" fill="#01558B"/>
    <path transform="translate(984,283)" d="m0 0h19l1 4v108l-1 1h-19l-1-9v-65z" fill="#01558B"/>
    <path transform="translate(939,283)" d="m0 0h42l1 4-1 68h-1l-1-21h-11l-16 3-4 1-3-1-1-3-2 1-2 4-2 11h-1v-28l1-34z" fill="#016299"/>
    <path transform="translate(90,278)" d="m0 0 5 1 5 4 7 14 1 8-3 1-40 1h-56l-1-1v-18l1-3h28l5 1h16l4 1 15-7z" fill="#016299"/>
    <path transform="translate(1171,156)" d="m0 0 3 3 14 23 1 1v5l-2 3 4 6v109h-1l-1-30-2-1h-6l-5 3-2 3h-2l-1 2-1-39v-56z" fill="#0085BC"/>
    <path transform="translate(896,283)" d="m0 0h39l1 5-1 43-1 13h-1v-7l-3 1-5-2v-2l-5-1-3 2-7-1h-2l-2-2-4 1-1-6-3-1-2 69h-1v-111z" fill="#016198"/>
    <path transform="translate(851,274)" d="m0 0h6l4 3v44l-3 1-11 2-5 3-8-1h-16v-44l4-3 14-1z" fill="#026198"/>
    <path transform="translate(1117,294)" d="m0 0h2l1 101-1 1h-19l-1-1v-83l2-3h2l-2-6-7-3 1-2h10l4 1v-2z" fill="#015389"/>
    <path transform="translate(1024,283)" d="m0 0h95v11l-7 3h-3v2h-14l1 3-4-1-1 2h-10l-13-4h-40l-3 1-1 89h-1v-105z" fill="#0085BC"/>
    <path transform="translate(1132,285)" d="m0 0h3l1 104 4 4v3h-18l-1-35v-18l1-47 1-3 8-7z" fill="#01548A"/>
    <path transform="translate(805,283)" d="m0 0 7 1 2 16v39h-1l-2-14-5 1v-2l-12 2-15 5v-38l6-5 18-4z" fill="#026198"/>
    <path transform="translate(1152,278)" d="m0 0 12 2 3 1v50l-3-1h-15l-2 2 1 2-8 2v-53l4-4z" fill="#026097"/>
    <path transform="translate(1961,280)" d="m0 0h20l18 7 9 6 1 3h-2v2l-6 1h-66l-11-1-2-3v-8l1-3h5l5-3 16 1 6 1z" fill="#016198"/>
    <path transform="translate(865,278)" d="m0 0 5 1 4 7 5 4v3l3-2h4l2-5 1-2h2v53l-2-3-3 3-6 1-1-3-3-1-5-9-3-1v-2l-3 1z" fill="#026198"/>
    <path transform="translate(984,283)" d="m0 0h19l1 4v83h-1l-1-37-14 1-5-1z" fill="#016198"/>
    <path transform="translate(1352,452)" d="m0 0 4 2 8 14 11 17-1 2h-54l2-4 29-29z" fill="#01568C"/>
    <path transform="translate(1117,294)" d="m0 0h2v65h-1v-20h-3v3l-7 1-7 2-1 50h-1v-83l2-3h2l-2-6-7-3 1-2h10l4 1v-2z" fill="#01649B"/>
    <path transform="translate(1181,274)" d="m0 0h6l3 2 1 38v11l-3-3-4-1-5 1-7 7-1 9h-1v-40l1-15 5-6z" fill="#01639A"/>
    <path transform="translate(896,283)" d="m0 0h39l1 5-1 14-14-2h-7l-9 2-5-1-3-1v56l-1 39h-1v-111z" fill="#0085BC"/>
    <path transform="translate(774,256)" d="m0 0h1v105l3 1h-4v-64l-6 2-9 7-6 3h-2v2l-4 1 2-4 1-5 1-7 2-8 12-19 8-13z" fill="#0084BB"/>
    <path transform="translate(939,283)" d="m0 0h42l1 4-1 13-21-1-21 2v17h-1v-30z" fill="#0085BC"/>
    <path transform="translate(1132,285)" d="m0 0h3v70h-1l-1-22-3-1-1 2h2v2l-5 1-1-3h-3v-38l1-3 8-7z" fill="#026198"/>
    <path transform="translate(9,478)" d="m0 0h58l7 7v2h-65l-1-1v-6z" fill="#015A90"/>
    <path transform="translate(984,283)" d="m0 0h19l1 4v83h-1l-1-69h-9l-9 1z" fill="#0085BC"/>
    <path transform="translate(1240,268)" d="m0 0 3 3 16 26-1 2-2-1-1 5h2v5 3l-4-2v-2l-5-2-8-5z" fill="#0085BC"/>
    <path transform="translate(1371,316)" d="m0 0h111l1 5-1-3-4 1 1 3-5 5-5-4v-5h-86l-1 5-3-1-1 5-4 7-1 7h-1l-1-9z" fill="#0085BC"/>
    <path transform="translate(1006,283)" d="m0 0h13l1 1v105h-1l-1-90-9 1-1 1-1 93h-1z" fill="#0085BC"/>
    <path transform="translate(1012,298)" d="m0 0h6l1 1v33l-7-1-5 1v-31z" fill="#026198"/>
    <path transform="translate(293,375)" d="m0 0h67v1l170 1v1h-272v-1l35-1z" fill="#0084BB"/>
    <path transform="translate(1277,328)" d="m0 0 3 3 9 15-1 2 1 9-1 3 2 4-9-3-2-1-1 73h-1z" fill="#016CA3"/>
    <path transform="translate(1925,470)" d="m0 0h26l-4 3-14 6-18 5h-2l1-4h2l2-4z" fill="#01598F"/>
    <path transform="translate(1907,301)" d="m0 0 124 1 1 9-1-4-4 2-2 3-4-2-5-6h-91l-9 1-3 1-6-4z" fill="#0085BC"/>
    <path transform="translate(9,464)" d="m0 0h2v3l4 2 5 1h11l3 1h28l2 1v2h-55z" fill="#01356C"/>
    <path transform="translate(1591,291)" d="m0 0h16l18 1 3 1v2h-63l1-2 4-1z" fill="#026198"/>
    <path transform="translate(1497)" d="m0 0h60l-1 3-3 1h-27l-28-2z" fill="#0085BC"/>
    <path transform="translate(645,465)" d="m0 0h2v22h-14v-3l10-16z" fill="#025F95"/>
    <path transform="translate(535,318)" d="m0 0h2l-1 9-4 10-3 9-6 5-5 1v-3l9-13 6-13z" fill="#01588E"/>
    <path transform="translate(2028,159)" d="m0 0h5l1 1v10l-1 1h-16l2-4 7-7z" fill="#0085BC"/>
    <path transform="translate(1507,270)" d="m0 0 7 2h3l1 2h5v2l-6 1h-10l-5-2 1-3z" fill="#026198"/>
    <path transform="translate(61,478)" d="m0 0h2l-1 3-6 1h-13l-16-1 4-2h12z" fill="#01346B"/>
    <path transform="translate(1924,329)" d="m0 0h1l1 5v12l-4 2-3-1 3-9z" fill="#01588E"/>
    <path transform="translate(720,349)" d="m0 0 2 2-1 13-4-1-2-5 3-6h2z" fill="#01649B"/>
    <path transform="translate(9,285)" d="m0 0h28v1l-19 2-9-2z" fill="#0085BC"/>
    <path transform="translate(2027,360)" d="m0 0h5l-1 8-2 4z" fill="#0170A7"/>
    <path transform="translate(647,354)" d="m0 0h1v11l-2 4-1-8v-5z" fill="#0169A0"/>
    <path transform="translate(10,271)" d="m0 0 2 3v3l2 1h-2l-1 4h-2v-10z" fill="#026198"/>
    <path transform="translate(1865,293)" d="m0 0 6 2-1 2-14-1 1-2z" fill="#01659C"/>
    <path transform="translate(688,395)" d="m0 0h2v9l-2-4-5 5 2-5z" fill="#006FA6"/>
    <path transform="translate(1954,24)" d="m0 0" fill="#0085BC"/>
</svg>
